<svg xmlns="http://www.w3.org/2000/svg" viewBox="0 0 64 64" width="64" height="64">
  <rect width="64" height="64" rx="14" fill="#0b1220" />
  <!-- trunk -->
  <rect x="29" y="49" width="6" height="8" rx="1.5" fill="#8b5e3c" />
  <!-- foliage -->
  <path d="M32 9 15 27h9L12 41h40L40 27h9z" fill="#34d399" />
  <path d="M32 21 21 33h6L18 43h28l-9-10h6z" fill="#10b981" />
  <!-- ornaments -->
  <circle cx="26" cy="31" r="2.4" fill="#f87171" />
  <circle cx="38" cy="33" r="2.4" fill="#fbbf24" />
  <circle cx="29" cy="38" r="2.2" fill="#60a5fa" />
  <!-- star -->
  <path d="m32 3 2.2 5.1 5.5.5-4.2 3.6 1.3 5.4L32 14.9l-4.8 2.7 1.3-5.4-4.2-3.6 5.5-.5z" fill="#fbbf24" />
</svg>